<svg xmlns="http://www.w3.org/2000/svg" version="1.0" width="761.000000pt" height="761.000000pt" viewBox="-3 -3 767 767" preserveAspectRatio="xMidYMid meet"><g id="deeditor_bgCarrier" stroke-width="0">
    <rect id="dee_c_e" x="-3" y="-3" width="767" height="767" rx="0" fill="#898989" strokewidth="0"/>
  </g>

<g transform="translate(0.000000,761.000000) scale(0.100000,-0.100000)" fill="#b4b4b4" stroke="none">
<path d="M545 7425 c-234 -37 -406 -158 -503 -354 l-37 -75 0 -3195 0 -3196 40 -80 c30 -61 59 -100 120 -160 90 -91 175 -139 311 -177 l79 -23 3175 -3 c2119 -2 3207 1 3272 7 297 32 515 201 594 460 12 39 14 533 14 3176 l0 3130 -25 68 c-84 240 -282 392 -555 426 -134 17 -6379 13 -6485 -4z m6222 -466 c103 -38 159 -73 230 -145 67 -68 120 -165 144 -264 12 -46 14 -514 14 -2760 l0 -2705 -28 -80 c-53 -151 -146 -258 -282 -326 -150 -74 94 -69 -3045 -69 -3101 0 -2892 -4 -3029 60 -173 81 -289 233 -321 420 -8 47 -10 823 -8 2750 3 2588 4 2687 22 2740 43 128 112 225 210 294 71 51 114 70 211 96 68 18 166 19 2940 17 l2870 -2 72 -26z" fill="#b4b4b4"/>
<path d="M1291 6328 c-12 -62 -22 -118 -271 -1464 -104 -566 -190 -1036 -190 -1042 0 -9 55 -12 215 -12 201 0 215 -1 215 -18 0 -10 -40 -250 -89 -533 -291 -1671 -351 -2019 -351 -2033 0 -15 116 -16 1320 -16 l1320 0 77 155 78 155 321 0 321 0 13 -142 c7 -79 17 -149 22 -155 8 -10 121 -13 484 -13 260 0 475 4 477 8 4 6 -97 765 -287 2153 -31 224 -56 414 -56 423 0 14 16 16 125 16 108 0 126 2 135 18 23 37 570 1026 573 1036 14 39 10 -55 -24 -509 -21 -280 -38 -518 -39 -527 0 -17 28 -18 445 -18 l444 0 5 33 c3 17 19 196 36 397 17 201 64 756 105 1234 41 478 75 878 75 888 0 17 -23 18 -489 18 l-489 0 -70 -132 c-38 -73 -106 -203 -152 -288 -45 -85 -148 -279 -228 -430 -79 -151 -149 -279 -153 -284 -6 -6 -9 -2 -10 10 0 10 -31 267 -68 569 l-67 550 -469 0 -469 0 -122 -380 c-322 -999 -446 -1380 -450 -1384 -7 -7 -5 22 6 80 6 30 26 153 45 274 19 121 75 479 125 795 50 316 93 585 95 598 l5 22 -454 0 -454 0 -5 -22 c-4 -13 -51 -241 -107 -508 -55 -267 -104 -493 -108 -502 -5 -13 -22 15 -61 105 -130 291 -334 746 -358 797 -14 30 -32 72 -40 93 l-15 37 -463 0 -464 0 -10 -52z m904 -1968 c119 -289 220 -531 222 -537 4 -10 -64 -13 -321 -13 -179 0 -326 3 -326 7 0 7 177 1011 186 1056 3 16 9 25 13 20 4 -4 106 -244 226 -533z m2429 -28 l83 -517 -225 -3 c-124 -1 -227 0 -229 2 -3 2 14 73 37 158 23 84 82 304 131 488 49 184 95 353 101 375 6 22 13 34 15 27 3 -7 42 -246 87 -530z m-785 -544 c-15 -29 -739 -1359 -1046 -1923 -129 -236 -239 -434 -243 -439 -5 -5 -7 -1 -4 10 17 74 94 441 94 451 0 10 -81 13 -380 13 -355 0 -380 1 -379 18 0 9 10 73 22 142 l22 125 363 3 c199 1 362 3 362 5 0 4 110 552 115 575 l5 22 -359 0 c-198 0 -362 3 -364 8 -3 4 5 61 18 127 13 66 25 131 27 145 l3 25 404 5 405 5 67 330 c38 182 71 340 74 353 l5 22 401 0 400 0 -12 -22z m311 -1170 c1 -13 11 -117 24 -233 13 -115 22 -213 19 -217 -2 -5 -63 -8 -134 -8 -122 0 -130 1 -127 19 5 29 202 461 210 461 5 0 8 -10 8 -22z" fill="#b4b4b4"/>
</g>
</svg>